<svg width="119" height="48" viewBox="0 0 119 48" fill="none" xmlns="http://www.w3.org/2000/svg">
<path fill-rule="evenodd" clip-rule="evenodd" d="M0.391796 11.7329C1.03081 10.9139 2.22626 10.7577 3.06189 11.384L19.2523 23.5172C19.7236 23.8704 20 24.4186 20 25C20 25.5814 19.7236 26.1296 19.2523 26.4828L3.06189 38.616C2.22626 39.2423 1.03081 39.0861 0.391796 38.2671C-0.247221 37.4482 -0.0878281 36.2767 0.747809 35.6505L14.9596 25L0.747809 14.3495C-0.0878281 13.7233 -0.247221 12.5518 0.391796 11.7329Z" fill="#EB5757"/>
<path d="M25.2521 7.4V41H22.8041V9.608H14.5961V7.4H25.2521ZM47.1659 21.128C49.3739 21.128 51.3259 21.544 53.0219 22.376C54.7499 23.176 56.0779 24.344 57.0059 25.88C57.9339 27.384 58.3979 29.128 58.3979 31.112C58.3979 33.128 57.9179 34.904 56.9579 36.44C55.9979 37.976 54.6699 39.16 52.9739 39.992C51.2779 40.824 49.3579 41.24 47.2139 41.24C42.8619 41.24 39.5179 39.768 37.1819 36.824C34.8779 33.848 33.7259 29.704 33.7259 24.392C33.7259 20.68 34.3339 17.544 35.5499 14.984C36.7979 12.392 38.5419 10.44 40.7819 9.128C43.0219 7.816 45.6459 7.16 48.6539 7.16C51.8219 7.16 54.3659 7.736 56.2859 8.888L55.2779 10.856C53.6779 9.832 51.4699 9.32 48.6539 9.32C44.7819 9.32 41.7259 10.584 39.4859 13.112C37.2779 15.608 36.1739 19.24 36.1739 24.008C36.1739 25.48 36.2699 26.824 36.4619 28.04C37.1339 25.864 38.4299 24.168 40.3499 22.952C42.3019 21.736 44.5739 21.128 47.1659 21.128ZM47.1179 39.128C49.7419 39.128 51.8699 38.408 53.5019 36.968C55.1339 35.496 55.9499 33.56 55.9499 31.16C55.9499 28.76 55.1339 26.84 53.5019 25.4C51.8699 23.96 49.6459 23.24 46.8299 23.24C45.0379 23.24 43.4219 23.592 41.9819 24.296C40.5739 25 39.4699 25.96 38.6699 27.176C37.9019 28.392 37.5179 29.752 37.5179 31.256C37.5179 32.6 37.8859 33.88 38.6219 35.096C39.3899 36.312 40.4939 37.288 41.9339 38.024C43.3739 38.76 45.1019 39.128 47.1179 39.128ZM75.7529 41.24C73.1929 41.24 70.9049 40.552 68.8889 39.176C66.9049 37.768 65.3529 35.784 64.2329 33.224C63.1449 30.664 62.6009 27.656 62.6009 24.2C62.6009 20.744 63.1449 17.736 64.2329 15.176C65.3529 12.616 66.9049 10.648 68.8889 9.272C70.9049 7.864 73.1929 7.16 75.7529 7.16C78.3129 7.16 80.5849 7.864 82.5689 9.272C84.5849 10.648 86.1369 12.616 87.2249 15.176C88.3449 17.736 88.9049 20.744 88.9049 24.2C88.9049 27.656 88.3449 30.664 87.2249 33.224C86.1369 35.784 84.5849 37.768 82.5689 39.176C80.5849 40.552 78.3129 41.24 75.7529 41.24ZM75.7529 38.984C77.8649 38.984 79.7209 38.408 81.3209 37.256C82.9529 36.072 84.2169 34.376 85.1129 32.168C86.0089 29.928 86.4569 27.272 86.4569 24.2C86.4569 21.128 86.0089 18.488 85.1129 16.28C84.2169 14.04 82.9529 12.344 81.3209 11.192C79.7209 10.008 77.8649 9.416 75.7529 9.416C73.6409 9.416 71.7689 10.008 70.1369 11.192C68.5369 12.344 67.2889 14.04 66.3929 16.28C65.4969 18.488 65.0489 21.128 65.0489 24.2C65.0489 27.272 65.4969 29.928 66.3929 32.168C67.2889 34.376 68.5369 36.072 70.1369 37.256C71.7689 38.408 73.6409 38.984 75.7529 38.984Z" fill="#333333"/>
<path d="M105.235 29.384H99.1387V41H96.7387V15.944H99.1387V27.32H105.235L114.691 15.944H117.331L107.155 28.088L118.099 41H115.219L105.235 29.384Z" fill="#EB5757"/>
</svg>
