<svg width="127" height="48" viewBox="0 0 127 48" fill="none" xmlns="http://www.w3.org/2000/svg">
<path fill-rule="evenodd" clip-rule="evenodd" d="M0.391796 11.7329C1.03081 10.9139 2.22626 10.7577 3.06189 11.384L19.2523 23.5172C19.7236 23.8704 20 24.4186 20 25C20 25.5814 19.7236 26.1296 19.2523 26.4828L3.06189 38.616C2.22626 39.2423 1.03081 39.0861 0.391796 38.2671C-0.247221 37.4482 -0.0878281 36.2767 0.747809 35.6505L14.9596 25L0.747809 14.3495C-0.0878281 13.7233 -0.247221 12.5518 0.391796 11.7329Z" fill="#EB5757"/>
<path d="M39.1654 38.792V41H16.0774V39.272L30.2854 25.16C32.1414 23.304 33.3894 21.72 34.0294 20.408C34.7014 19.064 35.0374 17.688 35.0374 16.28C35.0374 14.136 34.3014 12.456 32.8294 11.24C31.3894 10.024 29.2934 9.416 26.5414 9.416C24.4294 9.416 22.5734 9.736 20.9734 10.376C19.4054 11.016 18.0454 11.992 16.8934 13.304L15.1654 11.768C16.4454 10.296 18.0614 9.16 20.0134 8.36C21.9974 7.56 24.2374 7.16 26.7334 7.16C30.0294 7.16 32.6534 7.96 34.6054 9.56C36.5574 11.16 37.5334 13.32 37.5334 16.04C37.5334 17.768 37.1494 19.416 36.3814 20.984C35.6134 22.552 34.1734 24.376 32.0614 26.456L19.6774 38.792H39.1654ZM56.7608 41.24C54.2008 41.24 51.9128 40.552 49.8968 39.176C47.9128 37.768 46.3608 35.784 45.2408 33.224C44.1528 30.664 43.6088 27.656 43.6088 24.2C43.6088 20.744 44.1528 17.736 45.2408 15.176C46.3608 12.616 47.9128 10.648 49.8968 9.272C51.9128 7.864 54.2008 7.16 56.7608 7.16C59.3208 7.16 61.5928 7.864 63.5768 9.272C65.5928 10.648 67.1448 12.616 68.2328 15.176C69.3528 17.736 69.9128 20.744 69.9128 24.2C69.9128 27.656 69.3528 30.664 68.2328 33.224C67.1448 35.784 65.5928 37.768 63.5768 39.176C61.5928 40.552 59.3208 41.24 56.7608 41.24ZM56.7608 38.984C58.8728 38.984 60.7288 38.408 62.3288 37.256C63.9608 36.072 65.2248 34.376 66.1208 32.168C67.0168 29.928 67.4648 27.272 67.4648 24.2C67.4648 21.128 67.0168 18.488 66.1208 16.28C65.2248 14.04 63.9608 12.344 62.3288 11.192C60.7288 10.008 58.8728 9.416 56.7608 9.416C54.6488 9.416 52.7768 10.008 51.1448 11.192C49.5448 12.344 48.2968 14.04 47.4008 16.28C46.5048 18.488 46.0568 21.128 46.0568 24.2C46.0568 27.272 46.5048 29.928 47.4008 32.168C48.2968 34.376 49.5448 36.072 51.1448 37.256C52.7768 38.408 54.6488 38.984 56.7608 38.984ZM88.3545 41.24C85.7945 41.24 83.5065 40.552 81.4905 39.176C79.5065 37.768 77.9545 35.784 76.8345 33.224C75.7465 30.664 75.2025 27.656 75.2025 24.2C75.2025 20.744 75.7465 17.736 76.8345 15.176C77.9545 12.616 79.5065 10.648 81.4905 9.272C83.5065 7.864 85.7945 7.16 88.3545 7.16C90.9145 7.16 93.1865 7.864 95.1705 9.272C97.1865 10.648 98.7385 12.616 99.8265 15.176C100.947 17.736 101.507 20.744 101.507 24.2C101.507 27.656 100.947 30.664 99.8265 33.224C98.7385 35.784 97.1865 37.768 95.1705 39.176C93.1865 40.552 90.9145 41.24 88.3545 41.24ZM88.3545 38.984C90.4665 38.984 92.3225 38.408 93.9225 37.256C95.5545 36.072 96.8185 34.376 97.7145 32.168C98.6105 29.928 99.0585 27.272 99.0585 24.2C99.0585 21.128 98.6105 18.488 97.7145 16.28C96.8185 14.04 95.5545 12.344 93.9225 11.192C92.3225 10.008 90.4665 9.416 88.3545 9.416C86.2425 9.416 84.3705 10.008 82.7385 11.192C81.1385 12.344 79.8905 14.04 78.9945 16.28C78.0985 18.488 77.6505 21.128 77.6505 24.2C77.6505 27.272 78.0985 29.928 78.9945 32.168C79.8905 34.376 81.1385 36.072 82.7385 37.256C84.3705 38.408 86.2425 38.984 88.3545 38.984Z" fill="#333333"/>
<path d="M115.556 31.32H110.476V41H108.476V20.12H110.476V29.6H115.556L123.436 20.12H125.636L117.156 30.24L126.276 41H123.876L115.556 31.32Z" fill="#EB5757"/>
</svg>
