<svg width="143" height="48" viewBox="0 0 143 48" fill="none" xmlns="http://www.w3.org/2000/svg">
<path fill-rule="evenodd" clip-rule="evenodd" d="M0.391796 11.7329C1.03081 10.9139 2.22626 10.7577 3.06189 11.384L19.2523 23.5172C19.7236 23.8704 20 24.4186 20 25C20 25.5814 19.7236 26.1296 19.2523 26.4828L3.06189 38.616C2.22626 39.2423 1.03081 39.0861 0.391796 38.2671C-0.247221 37.4482 -0.0878281 36.2767 0.747809 35.6505L14.9596 25L0.747809 14.3495C-0.0878281 13.7233 -0.247221 12.5518 0.391796 11.7329Z" fill="#EB5757"/>
<path d="M25.088 7.4V41H22.64V9.608H14.432V7.4H25.088ZM46.7139 41.24C44.1539 41.24 41.8659 40.552 39.8499 39.176C37.8659 37.768 36.3139 35.784 35.1939 33.224C34.1059 30.664 33.5619 27.656 33.5619 24.2C33.5619 20.744 34.1059 17.736 35.1939 15.176C36.3139 12.616 37.8659 10.648 39.8499 9.272C41.8659 7.864 44.1539 7.16 46.7139 7.16C49.2739 7.16 51.5459 7.864 53.5299 9.272C55.5459 10.648 57.0979 12.616 58.1859 15.176C59.3059 17.736 59.8659 20.744 59.8659 24.2C59.8659 27.656 59.3059 30.664 58.1859 33.224C57.0979 35.784 55.5459 37.768 53.5299 39.176C51.5459 40.552 49.2739 41.24 46.7139 41.24ZM46.7139 38.984C48.8259 38.984 50.6819 38.408 52.2819 37.256C53.9139 36.072 55.1779 34.376 56.0739 32.168C56.9699 29.928 57.4179 27.272 57.4179 24.2C57.4179 21.128 56.9699 18.488 56.0739 16.28C55.1779 14.04 53.9139 12.344 52.2819 11.192C50.6819 10.008 48.8259 9.416 46.7139 9.416C44.6019 9.416 42.7299 10.008 41.0979 11.192C39.4979 12.344 38.2499 14.04 37.3539 16.28C36.4579 18.488 36.0099 21.128 36.0099 24.2C36.0099 27.272 36.4579 29.928 37.3539 32.168C38.2499 34.376 39.4979 36.072 41.0979 37.256C42.7299 38.408 44.6019 38.984 46.7139 38.984Z" fill="#333333"/>
<path d="M87.2836 15.944V41H84.8836V18.104H71.8276L71.4916 24.776C71.2996 28.232 71.0116 31.128 70.6276 33.464C70.2436 35.8 69.5876 37.688 68.6596 39.128C67.7316 40.568 66.4516 41.288 64.8196 41.288C64.3396 41.288 63.6516 41.176 62.7556 40.952L62.9956 38.888C63.5076 39.016 63.8916 39.08 64.1476 39.08C65.4916 39.08 66.5156 38.424 67.2196 37.112C67.9236 35.8 68.4036 34.168 68.6596 32.216C68.9156 30.264 69.1236 27.72 69.2836 24.584L69.7156 15.944H87.2836ZM119.013 29.048H97.4608C97.5248 31 98.0208 32.744 98.9488 34.28C99.8768 35.784 101.125 36.952 102.693 37.784C104.293 38.616 106.085 39.032 108.069 39.032C109.701 39.032 111.205 38.744 112.581 38.168C113.989 37.56 115.157 36.68 116.085 35.528L117.477 37.112C116.389 38.424 115.013 39.432 113.349 40.136C111.717 40.84 109.941 41.192 108.021 41.192C105.525 41.192 103.301 40.648 101.349 39.56C99.3968 38.472 97.8608 36.968 96.7408 35.048C95.6528 33.128 95.1088 30.936 95.1088 28.472C95.1088 26.04 95.6208 23.864 96.6448 21.944C97.7008 19.992 99.1408 18.472 100.965 17.384C102.789 16.296 104.837 15.752 107.109 15.752C109.381 15.752 111.413 16.296 113.205 17.384C115.029 18.44 116.453 19.928 117.477 21.848C118.533 23.768 119.061 25.944 119.061 28.376L119.013 29.048ZM107.109 17.864C105.349 17.864 103.765 18.264 102.357 19.064C100.949 19.832 99.8128 20.936 98.9488 22.376C98.1168 23.784 97.6368 25.384 97.5088 27.176H116.709C116.613 25.384 116.133 23.784 115.269 22.376C114.405 20.968 113.269 19.864 111.861 19.064C110.453 18.264 108.869 17.864 107.109 17.864ZM142.483 18.104H132.691V41H130.291V18.104H120.499V15.944H142.483V18.104Z" fill="#EB5757"/>
</svg>
