<svg width="107" height="48" viewBox="0 0 107 48" fill="none" xmlns="http://www.w3.org/2000/svg">
<path fill-rule="evenodd" clip-rule="evenodd" d="M0.391796 11.7329C1.03081 10.9139 2.22626 10.7577 3.06189 11.384L19.2523 23.5172C19.7236 23.8704 20 24.4186 20 25C20 25.5814 19.7236 26.1296 19.2523 26.4828L3.06189 38.616C2.22626 39.2423 1.03081 39.0861 0.391796 38.2671C-0.247221 37.4482 -0.0878281 36.2767 0.747809 35.6505L14.9596 25L0.747809 14.3495C-0.0878281 13.7233 -0.247221 12.5518 0.391796 11.7329Z" fill="#EB5757"/>
<path d="M30.5488 21.128C32.7568 21.128 34.7088 21.544 36.4048 22.376C38.1328 23.176 39.4608 24.344 40.3888 25.88C41.3168 27.384 41.7808 29.128 41.7808 31.112C41.7808 33.128 41.3008 34.904 40.3408 36.44C39.3808 37.976 38.0528 39.16 36.3568 39.992C34.6608 40.824 32.7408 41.24 30.5968 41.24C26.2448 41.24 22.9008 39.768 20.5648 36.824C18.2608 33.848 17.1088 29.704 17.1088 24.392C17.1088 20.68 17.7168 17.544 18.9328 14.984C20.1808 12.392 21.9248 10.44 24.1648 9.128C26.4048 7.816 29.0288 7.16 32.0368 7.16C35.2048 7.16 37.7488 7.736 39.6688 8.888L38.6608 10.856C37.0608 9.832 34.8528 9.32 32.0368 9.32C28.1648 9.32 25.1088 10.584 22.8688 13.112C20.6608 15.608 19.5568 19.24 19.5568 24.008C19.5568 25.48 19.6528 26.824 19.8448 28.04C20.5168 25.864 21.8128 24.168 23.7328 22.952C25.6848 21.736 27.9568 21.128 30.5488 21.128ZM30.5008 39.128C33.1248 39.128 35.2528 38.408 36.8848 36.968C38.5168 35.496 39.3328 33.56 39.3328 31.16C39.3328 28.76 38.5168 26.84 36.8848 25.4C35.2528 23.96 33.0288 23.24 30.2128 23.24C28.4208 23.24 26.8048 23.592 25.3648 24.296C23.9568 25 22.8528 25.96 22.0528 27.176C21.2848 28.392 20.9008 29.752 20.9008 31.256C20.9008 32.6 21.2688 33.88 22.0048 35.096C22.7728 36.312 23.8768 37.288 25.3168 38.024C26.7568 38.76 28.4848 39.128 30.5008 39.128ZM59.1358 41.24C56.5758 41.24 54.2878 40.552 52.2718 39.176C50.2878 37.768 48.7358 35.784 47.6158 33.224C46.5278 30.664 45.9838 27.656 45.9838 24.2C45.9838 20.744 46.5278 17.736 47.6158 15.176C48.7358 12.616 50.2878 10.648 52.2718 9.272C54.2878 7.864 56.5758 7.16 59.1358 7.16C61.6958 7.16 63.9678 7.864 65.9518 9.272C67.9678 10.648 69.5198 12.616 70.6078 15.176C71.7278 17.736 72.2878 20.744 72.2878 24.2C72.2878 27.656 71.7278 30.664 70.6078 33.224C69.5198 35.784 67.9678 37.768 65.9518 39.176C63.9678 40.552 61.6958 41.24 59.1358 41.24ZM59.1358 38.984C61.2478 38.984 63.1038 38.408 64.7038 37.256C66.3358 36.072 67.5998 34.376 68.4958 32.168C69.3918 29.928 69.8398 27.272 69.8398 24.2C69.8398 21.128 69.3918 18.488 68.4958 16.28C67.5998 14.04 66.3358 12.344 64.7038 11.192C63.1038 10.008 61.2478 9.416 59.1358 9.416C57.0238 9.416 55.1518 10.008 53.5198 11.192C51.9198 12.344 50.6718 14.04 49.7758 16.28C48.8798 18.488 48.4318 21.128 48.4318 24.2C48.4318 27.272 48.8798 29.928 49.7758 32.168C50.6718 34.376 51.9198 36.072 53.5198 37.256C55.1518 38.408 57.0238 38.984 59.1358 38.984ZM90.7295 41.24C88.1695 41.24 85.8815 40.552 83.8655 39.176C81.8815 37.768 80.3295 35.784 79.2095 33.224C78.1215 30.664 77.5775 27.656 77.5775 24.2C77.5775 20.744 78.1215 17.736 79.2095 15.176C80.3295 12.616 81.8815 10.648 83.8655 9.272C85.8815 7.864 88.1695 7.16 90.7295 7.16C93.2895 7.16 95.5615 7.864 97.5455 9.272C99.5615 10.648 101.114 12.616 102.202 15.176C103.322 17.736 103.882 20.744 103.882 24.2C103.882 27.656 103.322 30.664 102.202 33.224C101.114 35.784 99.5615 37.768 97.5455 39.176C95.5615 40.552 93.2895 41.24 90.7295 41.24ZM90.7295 38.984C92.8415 38.984 94.6975 38.408 96.2975 37.256C97.9295 36.072 99.1935 34.376 100.09 32.168C100.986 29.928 101.434 27.272 101.434 24.2C101.434 21.128 100.986 18.488 100.09 16.28C99.1935 14.04 97.9295 12.344 96.2975 11.192C94.6975 10.008 92.8415 9.416 90.7295 9.416C88.6175 9.416 86.7455 10.008 85.1135 11.192C83.5135 12.344 82.2655 14.04 81.3695 16.28C80.4735 18.488 80.0255 21.128 80.0255 24.2C80.0255 27.272 80.4735 29.928 81.3695 32.168C82.2655 34.376 83.5135 36.072 85.1135 37.256C86.7455 38.408 88.6175 38.984 90.7295 38.984Z" fill="#333333"/>
</svg>
