<svg width="117" height="48" viewBox="0 0 117 48" fill="none" xmlns="http://www.w3.org/2000/svg">
<path fill-rule="evenodd" clip-rule="evenodd" d="M0.391796 11.7329C1.03081 10.9139 2.22626 10.7577 3.06189 11.384L19.2523 23.5172C19.7236 23.8704 20 24.4186 20 25C20 25.5814 19.7236 26.1296 19.2523 26.4828L3.06189 38.616C2.22626 39.2423 1.03081 39.0861 0.391796 38.2671C-0.247221 37.4482 -0.0878281 36.2767 0.747809 35.6505L14.9596 25L0.747809 14.3495C-0.0878281 13.7233 -0.247221 12.5518 0.391796 11.7329Z" fill="#EB5757"/>
<path d="M25.4943 7.4V41H23.0463V9.608H14.8383V7.4H25.4943ZM62.0001 31.688H54.9441V41H52.5441V31.688H33.3921V29.912L51.6321 7.4H54.3681L36.4641 29.528H52.5921V21.32H54.9441V29.528H62.0001V31.688ZM73.3949 21.464C78.2909 21.464 81.8429 22.328 84.0509 24.056C86.2589 25.752 87.3629 28.168 87.3629 31.304C87.3629 33.224 86.9149 34.936 86.0189 36.44C85.1549 37.912 83.8429 39.08 82.0829 39.944C80.3229 40.808 78.1629 41.24 75.6029 41.24C73.1709 41.24 70.8829 40.824 68.7389 39.992C66.6269 39.16 64.9789 38.072 63.7949 36.728L65.0429 34.856C66.0989 36.072 67.5549 37.064 69.4109 37.832C71.2989 38.6 73.3469 38.984 75.5549 38.984C78.5629 38.984 80.8669 38.296 82.4669 36.92C84.0989 35.544 84.9149 33.704 84.9149 31.4C84.9149 28.872 83.9869 26.952 82.1309 25.64C80.3069 24.328 77.2189 23.672 72.8669 23.672H66.0509L67.8269 7.4H85.6349V9.608H69.8909L68.5949 21.464H73.3949Z" fill="#333333"/>
<path d="M102.993 29.384H96.8965V41H94.4965V15.944H96.8965V27.32H102.993L112.449 15.944H115.089L104.913 28.088L115.857 41H112.977L102.993 29.384Z" fill="#EB5757"/>
</svg>
